<svg width="16" height="16" viewBox="0 0 16 16" fill="none" xmlns="http://www.w3.org/2000/svg">
<g clip-path="url(#clip0_1_235)">
<path d="M13.3333 1.33334H2.66667C1.93029 1.33334 1.33333 1.9303 1.33333 2.66668V5.33334C1.33333 6.06972 1.93029 6.66668 2.66667 6.66668H13.3333C14.0697 6.66668 14.6667 6.06972 14.6667 5.33334V2.66668C14.6667 1.9303 14.0697 1.33334 13.3333 1.33334Z" stroke="#1E293B" stroke-width="1.33333" stroke-linecap="round" stroke-linejoin="round"/>
<path d="M13.3333 9.33334H2.66667C1.93029 9.33334 1.33333 9.9303 1.33333 10.6667V13.3333C1.33333 14.0697 1.93029 14.6667 2.66667 14.6667H13.3333C14.0697 14.6667 14.6667 14.0697 14.6667 13.3333V10.6667C14.6667 9.9303 14.0697 9.33334 13.3333 9.33334Z" stroke="#1E293B" stroke-width="1.33333" stroke-linecap="round" stroke-linejoin="round"/>
<path d="M4 4H4.00667" stroke="#1E293B" stroke-width="1.33333" stroke-linecap="round" stroke-linejoin="round"/>
<path d="M4 12H4.00667" stroke="#1E293B" stroke-width="1.33333" stroke-linecap="round" stroke-linejoin="round"/>
</g>
<defs>
<clipPath id="clip0_1_235">
<rect width="16" height="16" fill="white"/>
</clipPath>
</defs>
</svg>
