<svg width="16" height="16" viewBox="0 0 16 16" fill="none" xmlns="http://www.w3.org/2000/svg">
<path d="M10 1.33331H4C3.64638 1.33331 3.30724 1.47379 3.05719 1.72384C2.80714 1.97389 2.66667 2.31302 2.66667 2.66665V13.3333C2.66667 13.6869 2.80714 14.0261 3.05719 14.2761C3.30724 14.5262 3.64638 14.6666 4 14.6666H12C12.3536 14.6666 12.6928 14.5262 12.9428 14.2761C13.1929 14.0261 13.3333 13.6869 13.3333 13.3333V4.66665L10 1.33331Z" stroke="#475569" stroke-width="1.33333" stroke-linecap="round" stroke-linejoin="round"/>
<path d="M9.33333 1.33331V3.99998C9.33333 4.3536 9.47381 4.69274 9.72386 4.94279C9.97391 5.19284 10.313 5.33331 10.6667 5.33331H13.3333" stroke="#475569" stroke-width="1.33333" stroke-linecap="round" stroke-linejoin="round"/>
<path d="M6.66667 6H5.33333" stroke="#475569" stroke-width="1.33333" stroke-linecap="round" stroke-linejoin="round"/>
<path d="M10.6667 8.66669H5.33333" stroke="#475569" stroke-width="1.33333" stroke-linecap="round" stroke-linejoin="round"/>
<path d="M10.6667 11.3333H5.33333" stroke="#475569" stroke-width="1.33333" stroke-linecap="round" stroke-linejoin="round"/>
</svg>
