<svg width="32" height="32" viewBox="0 0 32 32" fill="none" xmlns="http://www.w3.org/2000/svg">
<path d="M0 8C0 3.58172 3.58172 0 8 0H24C28.4183 0 32 3.58172 32 8V24C32 28.4183 28.4183 32 24 32H8C3.58172 32 0 28.4183 0 24V8Z" fill="#06B6D4" fill-opacity="0.1"/>
<g clip-path="url(#clip0_569_24316)">
<path d="M22.6668 16H21.0135C20.7221 15.9994 20.4386 16.0942 20.2062 16.27C19.9739 16.4457 19.8055 16.6928 19.7268 16.9733L18.1602 22.5466C18.1501 22.5813 18.129 22.6117 18.1002 22.6333C18.0713 22.6549 18.0362 22.6666 18.0002 22.6666C17.9641 22.6666 17.929 22.6549 17.9002 22.6333C17.8713 22.6117 17.8503 22.5813 17.8402 22.5466L14.1602 9.45331C14.1501 9.41869 14.129 9.38828 14.1002 9.36665C14.0713 9.34501 14.0362 9.33331 14.0002 9.33331C13.9641 9.33331 13.929 9.34501 13.9002 9.36665C13.8713 9.38828 13.8503 9.41869 13.8402 9.45331L12.2735 15.0266C12.1951 15.3061 12.0277 15.5523 11.7967 15.728C11.5657 15.9037 11.2837 15.9991 10.9935 16H9.3335" stroke="#06B6D4" stroke-width="1.33333" stroke-linecap="round" stroke-linejoin="round"/>
</g>
<defs>
<clipPath id="clip0_569_24316">
<rect width="16" height="16" fill="white" transform="translate(8 8)"/>
</clipPath>
</defs>
</svg>
