<svg width="32" height="32" viewBox="0 0 32 32" fill="none" xmlns="http://www.w3.org/2000/svg">
<path d="M0 6C0 2.68629 2.68629 0 6 0H26C29.3137 0 32 2.68629 32 6V26C32 29.3137 29.3137 32 26 32H6C2.68629 32 0 29.3137 0 26V6Z" fill="#398FF9" fill-opacity="0.1"/>
<path d="M18.6667 22V20.6667C18.6667 19.9594 18.3857 19.2811 17.8856 18.781C17.3855 18.281 16.7073 18 16 18H12C11.2928 18 10.6145 18.281 10.1144 18.781C9.6143 19.2811 9.33334 19.9594 9.33334 20.6667V22" stroke="#398FF9" stroke-width="1.33333" stroke-linecap="round" stroke-linejoin="round"/>
<path d="M18.6667 10.0853C19.2385 10.2336 19.7449 10.5675 20.1064 11.0347C20.468 11.5019 20.6641 12.0759 20.6641 12.6667C20.6641 13.2574 20.468 13.8314 20.1064 14.2986C19.7449 14.7658 19.2385 15.0997 18.6667 15.248" stroke="#398FF9" stroke-width="1.33333" stroke-linecap="round" stroke-linejoin="round"/>
<path d="M22.6667 22V20.6667C22.6662 20.0758 22.4696 19.5019 22.1076 19.0349C21.7456 18.5679 21.2387 18.2344 20.6667 18.0867" stroke="#398FF9" stroke-width="1.33333" stroke-linecap="round" stroke-linejoin="round"/>
<path d="M14 15.3333C15.4728 15.3333 16.6667 14.1394 16.6667 12.6667C16.6667 11.1939 15.4728 10 14 10C12.5273 10 11.3333 11.1939 11.3333 12.6667C11.3333 14.1394 12.5273 15.3333 14 15.3333Z" stroke="#398FF9" stroke-width="1.33333" stroke-linecap="round" stroke-linejoin="round"/>
</svg>
