<svg width="16" height="16" viewBox="0 0 16 16" fill="none" xmlns="http://www.w3.org/2000/svg">
<path d="M2.66667 13.3333C2.3 13.3333 1.98622 13.2028 1.72533 12.942C1.46445 12.6811 1.33378 12.3671 1.33333 12V3.99996C1.33333 3.63329 1.464 3.31951 1.72533 3.05863C1.98667 2.79774 2.30045 2.66707 2.66667 2.66663H13.3333C13.7 2.66663 14.014 2.79729 14.2753 3.05863C14.5367 3.31996 14.6671 3.63374 14.6667 3.99996V12C14.6667 12.3666 14.5362 12.6806 14.2753 12.942C14.0144 13.2033 13.7004 13.3337 13.3333 13.3333H2.66667ZM13.3333 5.33329L8.35 8.44996C8.29445 8.48329 8.23622 8.5084 8.17533 8.52529C8.11445 8.54218 8.056 8.5504 8 8.54996C7.944 8.54951 7.88578 8.54129 7.82533 8.52529C7.76489 8.50929 7.70645 8.48418 7.65 8.44996L2.66667 5.33329V12H13.3333V5.33329ZM8 7.33329L13.3333 3.99996H2.66667L8 7.33329ZM2.66667 5.49996V4.51663V4.53329V4.52529V5.49996Z" fill="#27BD72"/>
</svg>
