<svg width="16" height="16" viewBox="0 0 16 16" fill="none" xmlns="http://www.w3.org/2000/svg">
<path d="M4.44427 15.1786H11.5557C12.942 15.1786 13.6317 14.4754 13.6317 13.0826V7.00227C13.6317 6.13827 13.538 5.76341 13.0023 5.21427L9.3057 1.4577C8.79713 0.935125 8.3817 0.821411 7.62513 0.821411H4.44427C3.06484 0.821411 2.36827 1.53113 2.36827 2.92427V13.0826C2.36827 14.482 3.06484 15.1786 4.44427 15.1786ZM4.4977 14.1006C3.80798 14.1006 3.44627 13.732 3.44627 13.0626V2.94427C3.44627 2.28141 3.80798 1.89941 4.50455 1.89941H7.4777V5.79027C7.4777 6.63398 7.90627 7.04913 8.73655 7.04913H12.5537V13.0626C12.5537 13.732 12.1986 14.1006 11.5023 14.1006H4.4977ZM8.85713 6.0377C8.59598 6.0377 8.48855 5.93084 8.48855 5.66284V2.10713L12.3457 6.03798L8.85713 6.0377ZM10.4643 8.89055H5.38141C5.14055 8.89055 4.96655 9.07141 4.96655 9.29912C4.96655 9.53341 5.14084 9.71427 5.3817 9.71427H10.4643C10.519 9.71516 10.5734 9.70502 10.6242 9.68448C10.675 9.66393 10.7211 9.63338 10.7598 9.59465C10.7985 9.55593 10.8291 9.50981 10.8496 9.45904C10.8702 9.40827 10.8803 9.35389 10.8794 9.29912C10.8794 9.07141 10.6986 8.89055 10.4643 8.89055ZM10.4643 11.2277H5.38141C5.14055 11.2277 4.96655 11.4151 4.96655 11.6494C4.96655 11.8771 5.14084 12.0514 5.3817 12.0514H10.4643C10.6986 12.0514 10.8794 11.8771 10.8794 11.6494C10.8794 11.4151 10.6986 11.2277 10.4643 11.2277Z" fill="#6B7280"/>
</svg>
