<svg width="33" height="32" viewBox="0 0 33 32" fill="none" xmlns="http://www.w3.org/2000/svg">
<path d="M0.333374 6C0.333374 2.68629 3.01967 0 6.33337 0H26.3334C29.6471 0 32.3334 2.68629 32.3334 6V26C32.3334 29.3137 29.6471 32 26.3334 32H6.33337C3.01967 32 0.333374 29.3137 0.333374 26V6Z" fill="#FD5858" fill-opacity="0.1"/>
<g clip-path="url(#clip0_1_250)">
<path d="M22.82 20L17.4867 10.6667C17.3704 10.4615 17.2017 10.2908 16.9979 10.172C16.7942 10.0533 16.5625 9.99072 16.3267 9.99072C16.0908 9.99072 15.8592 10.0533 15.6554 10.172C15.4516 10.2908 15.283 10.4615 15.1667 10.6667L9.83333 20C9.71578 20.2036 9.65415 20.4346 9.65467 20.6697C9.65519 20.9047 9.71785 21.1355 9.83629 21.3385C9.95474 21.5416 10.1248 21.7097 10.3291 21.8259C10.5335 21.942 10.7649 22.0021 11 22H21.6667C21.9006 21.9997 22.1303 21.938 22.3328 21.8208C22.5353 21.7037 22.7035 21.5354 22.8203 21.3327C22.9372 21.1301 22.9987 20.9002 22.9986 20.6663C22.9986 20.4324 22.937 20.2026 22.82 20Z" stroke="#FD5858" stroke-width="1.33333" stroke-linecap="round" stroke-linejoin="round"/>
<path d="M16.3334 14V16.6667" stroke="#FD5858" stroke-width="1.33333" stroke-linecap="round" stroke-linejoin="round"/>
<path d="M16.3334 19.3333H16.34" stroke="#FD5858" stroke-width="1.33333" stroke-linecap="round" stroke-linejoin="round"/>
</g>
<defs>
<clipPath id="clip0_1_250">
<rect width="16" height="16" fill="white" transform="translate(8.33337 8)"/>
</clipPath>
</defs>
</svg>
