<svg width="32" height="32" viewBox="0 0 32 32" fill="none" xmlns="http://www.w3.org/2000/svg">
<path d="M0 8C0 3.58172 3.58172 0 8 0H24C28.4183 0 32 3.58172 32 8V24C32 28.4183 28.4183 32 24 32H8C3.58172 32 0 28.4183 0 24V8Z" fill="#398FF9" fill-opacity="0.1"/>
<path d="M22.6668 16H9.3335" stroke="#398FF9" stroke-width="1.33333" stroke-linecap="round" stroke-linejoin="round"/>
<path d="M11.6335 11.4067L9.3335 16V20C9.3335 20.3536 9.47397 20.6928 9.72402 20.9428C9.97407 21.1929 10.3132 21.3333 10.6668 21.3333H21.3335C21.6871 21.3333 22.0263 21.1929 22.2763 20.9428C22.5264 20.6928 22.6668 20.3536 22.6668 20V16L20.3668 11.4067C20.2564 11.1845 20.0863 10.9976 19.8755 10.8669C19.6647 10.7361 19.4216 10.6668 19.1735 10.6667H12.8268C12.5788 10.6668 12.3357 10.7361 12.1249 10.8669C11.914 10.9976 11.7439 11.1845 11.6335 11.4067Z" stroke="#398FF9" stroke-width="1.33333" stroke-linecap="round" stroke-linejoin="round"/>
<path d="M12 18.6667H12.0067" stroke="#398FF9" stroke-width="1.33333" stroke-linecap="round" stroke-linejoin="round"/>
<path d="M14.6665 18.6667H14.6732" stroke="#398FF9" stroke-width="1.33333" stroke-linecap="round" stroke-linejoin="round"/>
</svg>
