<svg width="17" height="16" viewBox="0 0 17 16" fill="none" xmlns="http://www.w3.org/2000/svg">
<path d="M11.3333 14V12.6667C11.3333 11.9594 11.0524 11.2811 10.5523 10.781C10.0522 10.281 9.37391 10 8.66667 10H4.66667C3.95942 10 3.28115 10.281 2.78105 10.781C2.28095 11.2811 2 11.9594 2 12.6667V14" stroke="#64748B" stroke-width="1.33333" stroke-linecap="round" stroke-linejoin="round"/>
<path d="M11.3335 2.08533C11.9053 2.23357 12.4118 2.5675 12.7733 3.0347C13.1348 3.5019 13.331 4.07592 13.331 4.66666C13.331 5.2574 13.1348 5.83142 12.7733 6.29862C12.4118 6.76582 11.9053 7.09975 11.3335 7.24799" stroke="#64748B" stroke-width="1.33333" stroke-linecap="round" stroke-linejoin="round"/>
<path d="M15.3335 14V12.6667C15.3331 12.0758 15.1364 11.5019 14.7744 11.0349C14.4124 10.5679 13.9056 10.2344 13.3335 10.0867" stroke="#64748B" stroke-width="1.33333" stroke-linecap="round" stroke-linejoin="round"/>
<path d="M6.66667 7.33333C8.13943 7.33333 9.33333 6.13943 9.33333 4.66667C9.33333 3.19391 8.13943 2 6.66667 2C5.19391 2 4 3.19391 4 4.66667C4 6.13943 5.19391 7.33333 6.66667 7.33333Z" stroke="#64748B" stroke-width="1.33333" stroke-linecap="round" stroke-linejoin="round"/>
</svg>
