<svg width="16" height="16" viewBox="0 0 16 16" fill="none" xmlns="http://www.w3.org/2000/svg">
<path d="M8.02891 6.32924L3.12891 11.2292C2.96224 11.3959 2.7678 11.4766 2.54558 11.4712C2.32335 11.4659 2.12891 11.3797 1.96224 11.2126C1.79558 11.0455 1.71224 10.851 1.71224 10.6292C1.71224 10.4075 1.79558 10.213 1.96224 10.0459L7.07891 4.91257C7.21224 4.77924 7.36224 4.67924 7.52891 4.61257C7.69558 4.54591 7.86224 4.51257 8.02891 4.51257C8.19558 4.51257 8.36224 4.54591 8.52891 4.61257C8.69558 4.67924 8.84558 4.77924 8.97891 4.91257L14.1122 10.0459C14.2789 10.2126 14.3596 10.4099 14.3542 10.6379C14.3489 10.8659 14.2627 11.063 14.0956 11.2292C13.9285 11.3955 13.734 11.4788 13.5122 11.4792C13.2905 11.4797 13.096 11.3964 12.9289 11.2292L8.02891 6.32924Z" fill="#6B7280"/>
</svg>
