<svg width="16" height="16" viewBox="0 0 16 16" fill="none" xmlns="http://www.w3.org/2000/svg">
<path d="M9.65006 7.99999L4.75006 3.09999C4.58339 2.93333 4.50273 2.73599 4.50806 2.50799C4.51339 2.27999 4.59962 2.08288 4.76673 1.91666C4.93384 1.75044 5.13117 1.6671 5.35873 1.66666C5.58628 1.66621 5.78339 1.74955 5.95006 1.91666L11.0667 7.04999C11.2001 7.18333 11.3001 7.33333 11.3667 7.49999C11.4334 7.66666 11.4667 7.83333 11.4667 7.99999C11.4667 8.16666 11.4334 8.33333 11.3667 8.49999C11.3001 8.66666 11.2001 8.81666 11.0667 8.94999L5.93339 14.0833C5.76673 14.25 5.57228 14.3307 5.35006 14.3253C5.12784 14.32 4.93339 14.2338 4.76673 14.0667C4.60006 13.8995 4.51673 13.7022 4.51673 13.4747C4.51673 13.2471 4.60006 13.05 4.76673 12.8833L9.65006 7.99999Z" fill="#6B7280"/>
</svg>
