<svg width="16" height="16" viewBox="0 0 16 16" fill="none" xmlns="http://www.w3.org/2000/svg">
<path d="M8.03774 9.66261L12.9377 4.76261C13.1044 4.59594 13.2989 4.51528 13.5211 4.52061C13.7433 4.52594 13.9377 4.61217 14.1044 4.77928C14.2711 4.94639 14.3544 5.14083 14.3544 5.36261C14.3544 5.58439 14.2711 5.77883 14.1044 5.94594L8.98774 11.0793C8.85441 11.2126 8.70441 11.3126 8.53774 11.3793C8.37107 11.4459 8.20441 11.4793 8.03774 11.4793C7.87107 11.4793 7.70441 11.4459 7.53774 11.3793C7.37107 11.3126 7.22107 11.2126 7.08774 11.0793L1.95441 5.94594C1.78774 5.77928 1.70707 5.58194 1.71241 5.35394C1.71774 5.12594 1.80396 4.92883 1.97107 4.76261C2.13818 4.59639 2.33263 4.51306 2.55441 4.51261C2.77618 4.51217 2.97063 4.5955 3.13774 4.76261L8.03774 9.66261Z" fill="#6B7280"/>
</svg>
