<svg width="16" height="16" viewBox="0 0 16 16" fill="none" xmlns="http://www.w3.org/2000/svg">
<path d="M6.36672 7.99999L11.2667 12.9C11.4334 13.0667 11.514 13.2611 11.5087 13.4833C11.5034 13.7055 11.4172 13.9 11.25 14.0667C11.0829 14.2333 10.8885 14.3167 10.6667 14.3167C10.4449 14.3167 10.2505 14.2333 10.0834 14.0667L4.95005 8.94999C4.81672 8.81666 4.71672 8.66666 4.65005 8.49999C4.58338 8.33332 4.55005 8.16666 4.55005 7.99999C4.55005 7.83332 4.58338 7.66666 4.65005 7.49999C4.71672 7.33332 4.81672 7.18332 4.95005 7.04999L10.0834 1.91666C10.25 1.74999 10.4474 1.66932 10.6754 1.67466C10.9034 1.67999 11.1005 1.76621 11.2667 1.93332C11.4329 2.10043 11.5163 2.29488 11.5167 2.51666C11.5172 2.73843 11.4338 2.93288 11.2667 3.09999L6.36672 7.99999Z" fill="#6B7280"/>
</svg>
