<svg width="20" height="20" viewBox="0 0 20 20" fill="none" xmlns="http://www.w3.org/2000/svg">
<path d="M3.42482 17.931H16.5748C17.8305 17.931 18.6173 17.0271 18.6173 15.8885C18.6188 15.5359 18.5263 15.1892 18.3495 14.8842L11.762 3.09849C11.3852 2.42028 10.6988 2.06885 10.0041 2.06885C9.31768 2.06885 8.61482 2.42028 8.23768 3.09849L1.65875 14.8924C1.47447 15.2103 1.38232 15.5453 1.38232 15.8888C1.38232 17.0271 2.17768 17.931 3.42482 17.931ZM10.0041 12.1971C9.56054 12.1971 9.31768 11.946 9.3009 11.4942L9.18375 7.35921C9.16697 6.90706 9.5184 6.57206 9.99554 6.57206C10.4645 6.57206 10.8327 6.91528 10.8159 7.36742L10.6905 11.4942C10.6738 11.9546 10.4309 12.1971 10.0041 12.1971ZM10.0041 15.286C9.5184 15.286 9.06661 14.901 9.06661 14.3817C9.06661 13.8624 9.51018 13.4781 10.0041 13.4781C10.498 13.4781 10.9416 13.8546 10.9416 14.3817C10.9416 14.9092 10.4895 15.286 10.0041 15.286Z" fill="#FD5858"/>
</svg>
