<svg width="16" height="16" viewBox="0 0 16 16" fill="none" xmlns="http://www.w3.org/2000/svg">
<path d="M13.3332 8.00008H6.99984M11.9998 10.0001L13.9998 8.00008L11.9998 6.00008M8.6665 4.66675V4.00008C8.6665 3.64646 8.52603 3.30732 8.27598 3.05727C8.02593 2.80722 7.68679 2.66675 7.33317 2.66675H3.99984C3.64622 2.66675 3.30708 2.80722 3.05703 3.05727C2.80698 3.30732 2.6665 3.64646 2.6665 4.00008V12.0001C2.6665 12.3537 2.80698 12.6928 3.05703 12.9429C3.30708 13.1929 3.64622 13.3334 3.99984 13.3334H7.33317C7.68679 13.3334 8.02593 13.1929 8.27598 12.9429C8.52603 12.6928 8.6665 12.3537 8.6665 12.0001V11.3334" stroke="#6B7280" stroke-width="1.33333" stroke-linecap="round" stroke-linejoin="round"/>
</svg>
