<svg width="16" height="16" viewBox="0 0 16 16" fill="none" xmlns="http://www.w3.org/2000/svg">
<mask id="path-1-inside-1_896_6296" fill="white">
<path d="M0 8C0 3.58172 3.58172 0 8 0C12.4183 0 16 3.58172 16 8C16 12.4183 12.4183 16 8 16C3.58172 16 0 12.4183 0 8Z"/>
</mask>
<path d="M0 8C0 3.58172 3.58172 0 8 0C12.4183 0 16 3.58172 16 8C16 12.4183 12.4183 16 8 16C3.58172 16 0 12.4183 0 8Z" fill="#398FF9"/>
<path d="M8 16V14C4.68629 14 2 11.3137 2 8H0H-2C-2 13.5228 2.47715 18 8 18V16ZM16 8H14C14 11.3137 11.3137 14 8 14V16V18C13.5228 18 18 13.5228 18 8H16ZM8 0V2C11.3137 2 14 4.68629 14 8H16H18C18 2.47715 13.5228 -2 8 -2V0ZM8 0V-2C2.47715 -2 -2 2.47715 -2 8H0H2C2 4.68629 4.68629 2 8 2V0Z" fill="#398FF9" mask="url(#path-1-inside-1_896_6296)"/>
<path d="M6 8C6 6.89543 6.89543 6 8 6C9.10457 6 10 6.89543 10 8C10 9.10457 9.10457 10 8 10C6.89543 10 6 9.10457 6 8Z" fill="white"/>
</svg>
