<svg width="20" height="20" viewBox="0 0 20 20" fill="none" xmlns="http://www.w3.org/2000/svg">
<path d="M3.42531 17.9311H16.5753C17.831 17.9311 18.6178 17.0271 18.6178 15.8886C18.6193 15.5359 18.5268 15.1893 18.35 14.8843L11.7625 3.09855C11.3857 2.42034 10.6992 2.06891 10.0046 2.06891C9.31817 2.06891 8.61531 2.42034 8.23817 3.09855L1.65924 14.8925C1.47496 15.2103 1.38281 15.5453 1.38281 15.8889C1.38281 17.0271 2.17817 17.9311 3.42531 17.9311ZM10.0046 12.1971C9.56103 12.1971 9.31817 11.9461 9.30138 11.4943L9.18424 7.35927C9.16746 6.90712 9.51888 6.57212 9.99603 6.57212C10.465 6.57212 10.8332 6.91534 10.8164 7.36748L10.691 11.4943C10.6742 11.9546 10.4314 12.1971 10.0046 12.1971ZM10.0046 15.2861C9.51888 15.2861 9.0671 14.9011 9.0671 14.3818C9.0671 13.8625 9.51067 13.4782 10.0046 13.4782C10.4985 13.4782 10.9421 13.8546 10.9421 14.3818C10.9421 14.9093 10.49 15.2861 10.0046 15.2861Z" fill="#FFBF00"/>
</svg>
